<svg width="24" height="24" viewBox="0 0 24 24" fill="none" xmlns="http://www.w3.org/2000/svg">
<g clip-path="url(#clip0_53_22)">
<path fill-rule="evenodd" clip-rule="evenodd" d="M12 24C8.8174 24 5.76516 22.7357 3.51472 20.4853C1.26428 18.2348 0 15.1826 0 12C0 8.8174 1.26428 5.76516 3.51472 3.51472C5.76516 1.26428 8.8174 0 12 0C15.1826 0 18.2348 1.26428 20.4853 3.51472C22.7357 5.76516 24 8.8174 24 12C24 15.1826 22.7357 18.2348 20.4853 20.4853C18.2348 22.7357 15.1826 24 12 24ZM17.475 7.7145L10.365 14.7L6.525 10.929C6.38233 10.7931 6.1919 10.7188 5.99487 10.7221C5.79784 10.7255 5.61005 10.8062 5.47209 10.9469C5.33414 11.0877 5.25711 11.277 5.25765 11.4741C5.2582 11.6711 5.33627 11.8601 5.475 12L9.8385 16.2855C9.9787 16.4229 10.1672 16.4999 10.3635 16.4999C10.5598 16.4999 10.7483 16.4229 10.8885 16.2855L18.525 8.7855C18.597 8.71694 18.6546 8.63476 18.6945 8.54373C18.7344 8.45271 18.7558 8.35466 18.7575 8.25528C18.7592 8.1559 18.7412 8.05718 18.7044 7.96485C18.6676 7.87252 18.6128 7.78842 18.5432 7.71745C18.4736 7.64647 18.3906 7.59004 18.299 7.55142C18.2075 7.51281 18.1091 7.49278 18.0097 7.4925C17.9103 7.49223 17.8119 7.51171 17.7201 7.54982C17.6283 7.58793 17.545 7.64391 17.475 7.7145Z" fill="white"/>
</g>
<defs>
<clipPath id="clip0_53_22">
<rect width="24" height="24" fill="white"/>
</clipPath>
</defs>
</svg>
