<svg width="57" height="57" viewBox="0 0 57 57" fill="none" xmlns="http://www.w3.org/2000/svg">
<g clip-path="url(#clip0_54_43)">
<path d="M48.0938 8.57631C53.5914 14.03 56.3403 20.6052 56.3403 28.302C56.3403 35.9988 53.5914 42.574 48.0938 48.0277C42.5961 53.4814 35.9769 56.2082 28.2361 56.2082C23.4861 56.2082 19.044 55.0647 14.9097 52.7777L0 56.6041L3.95833 42.2221C1.49537 37.912 0.263889 33.2499 0.263889 28.236C0.263889 20.5833 2.99074 14.03 8.44444 8.57631C13.8981 3.1226 20.4954 0.395752 28.2361 0.395752C35.9769 0.395752 42.5961 3.1226 48.0938 8.57631ZM28.2361 51.4582C34.6574 51.4582 40.1551 49.1932 44.7292 44.6631C49.3032 40.133 51.5903 34.6573 51.5903 28.236C51.5903 21.8147 49.3032 16.339 44.7292 11.8089C40.1551 7.27885 34.6574 5.01381 28.2361 5.01381C21.8148 5.01381 16.3391 7.27885 11.809 11.8089C7.27894 16.339 5.01389 21.8147 5.01389 28.236C5.01389 32.7221 6.20139 36.8564 8.57639 40.6388L9.10417 41.4305L6.72917 50.0069L15.5694 47.7638L16.3611 48.1596C20.0556 50.3587 24.0139 51.4582 28.2361 51.4582ZM41.0347 34.0416C41.8264 34.4814 42.2662 34.7893 42.3542 34.9652C42.706 35.493 42.5741 36.5925 41.9583 38.2638C41.6944 38.9675 41.0347 39.6492 39.9792 40.3089C38.9236 40.9687 38 41.3865 37.2083 41.5624C35.625 41.7383 34.1736 41.6504 32.8542 41.2985C31.3588 40.7707 30.0394 40.287 28.8958 39.8471C28.1921 39.4953 27.5104 39.1214 26.8507 38.7256C26.191 38.3298 25.5532 37.9339 24.9375 37.5381C24.3218 37.1423 23.75 36.7245 23.2222 36.2846C22.6944 35.8448 22.1887 35.405 21.7049 34.9652C21.2211 34.5254 20.7593 34.0636 20.3194 33.5798C19.8796 33.096 19.5058 32.6782 19.1979 32.3263C18.89 31.9745 18.5822 31.6006 18.2743 31.2048C17.9664 30.8089 17.7245 30.5011 17.5486 30.2812C17.3727 30.0613 17.2188 29.8414 17.0868 29.6214L16.8889 29.2916C14.9537 26.7407 13.9861 24.3217 13.9861 22.0346C13.9861 19.9235 14.8218 17.9883 16.4931 16.2291C17.0208 15.6133 17.6366 15.3055 18.3403 15.3055C18.8681 15.3055 19.3079 15.3495 19.6597 15.4374C20.3634 15.4374 20.8912 15.8333 21.2431 16.6249C21.419 16.8888 21.6829 17.4606 22.0347 18.3402L22.9583 20.6492L23.3542 21.7708C23.6181 22.2106 23.662 22.6064 23.4861 22.9583C23.2222 23.574 23.0023 23.9698 22.8264 24.1458L22.4306 24.5416L22.0347 25.0034L21.7708 25.3333C21.2431 25.861 21.1111 26.3448 21.375 26.7846C22.5185 28.7198 23.838 30.3471 25.3333 31.6666C26.4769 32.6342 28.3681 33.7777 31.0069 35.0971C31.6227 35.361 32.1065 35.317 32.4583 34.9652C33.5139 33.6457 34.2616 32.7221 34.7014 32.1944C35.0532 31.6666 35.581 31.5346 36.2847 31.7985C36.8125 32.0624 38.3958 32.8101 41.0347 34.0416Z" fill="#0CA5C7"/>
</g>
<defs>
<clipPath id="clip0_54_43">
<rect width="57" height="57" fill="white"/>
</clipPath>
</defs>
</svg>
